PathFileType	4	(X/Y/Z)	/mnt/D494C4CF94C4B4F0/Trampoline_predictions/poses3d/1_partie_0429_002.trc
DataRate	CameraRate	NumFrames	NumMarkers	Units	OrigDataRate	OrigDataStartFrame	OrigNumFrames
120	120	11	17	m	120	630	1261
Frame#	Time	Nose			L Eye			R Eye			L Ear			R Ear			L Shoulder			R Shoulder			L Elbow			R Elbow			L Wrist			R Wrist			L Hip			R Hip			L Knee			R Knee			L Ankle			R Ankle			
		X1	Y1	Z1	X2	Y2	Z2	X3	Y3	Z3	X4	Y4	Z4	X5	Y5	Z5	X6	Y6	Z6	X7	Y7	Z7	X8	Y8	Z8	X9	Y9	Z9	X10	Y10	Z10	X11	Y11	Z11	X12	Y12	Z12	X13	Y13	Z13	X14	Y14	Z14	X15	Y15	Z15	X16	Y16	Z16	X17	Y17	Z17	
630	5.25	0.8476327672703301	-0.38622679193842024	4.399612301439603	0.8624770709270306	-0.37914157766093404	4.387705473072321	0.8662156456261477	-0.37233739894558626	4.367633905738968	0.8342941917426506	-0.3871142657439823	4.337077796426276	0.8420809702182377	-0.32426200185238396	4.30921779574096	0.6731847177082365	-0.43539690706029244	4.3838755402244844	0.7245287159369861	-0.2501068946295987	4.228979526296993	0.5051731229777355	-0.4954115139526002	4.488783359709656	0.5072453667696404	-0.020433649542694148	4.380379031303629	0.4100761711949606	-0.4543838831271246	4.589715895550315	0.4084925742257972	-0.06628208574187686	4.569197314213408	0.23815676318455123	-0.35642034829101776	4.350163021961332	0.2956425037288607	-0.2435048658798306	4.275686337325883	0.4163172162319159	-0.24181845269108485	4.710678569213232	0.43913029748345217	-0.21214655230551333	4.713526950422658	0.5301422606384788	-0.12622367282850883	4.986207615732543	0.5368390187102432	-0.10394266881041131	4.9818608844390075
631	5.258333333333334	0.8243905777325284	-0.36693844692767386	4.463029736166152	0.8519845032745875	-0.3728498227448226	4.442236209462602	0.8533962128627356	-0.3578139068655523	4.425509403129522	0.8342021689722622	-0.39058280237920656	4.3902420626271805	0.8391744833232883	-0.32156154283973765	4.37475484092607	0.6726787429778631	-0.4535902968124219	4.425019717835573	0.7349078300079234	-0.24653043893419052	4.287795546017523	0.5171653197636329	-0.49687064981346524	4.508338972776082	0.5222499648905659	-0.02967924626852361	4.400926127387271	0.39376224258119674	-0.46184744694025565	4.592236609842094	0.3981245352081246	-0.06976722492699435	4.599057533901562	0.2618195080708885	-0.37436759911706063	4.3570587145109325	0.30679088467389304	-0.22583242023233321	4.2875994461696925	0.39395239652949277	-0.25742890452508893	4.727348250870278	0.4515749484320599	-0.16271652711805418	4.7325154595665575	0.48914902694714096	-0.1462940967469905	5.016954022870838	0.49330929735033563	-0.1158462142762828	5.005971288547176
632	5.266666666666667	0.8151724506878444	-0.3561951665329706	4.5380733953941785	0.8469319108615648	-0.38704861260480034	4.517648655094938	0.8432959690257803	-0.34514968875377994	4.500883607887019	0.8417603747482556	-0.3723890126270363	4.472838860828702	0.8586135668439144	-0.3124523259177456	4.412791794029939	0.676829824037083	-0.47345079257578054	4.473143153835967	0.7453628530221743	-0.22076998976215445	4.351512440219531	0.5331929724204093	-0.47097559895570174	4.536232813669644	0.5325687418659875	-0.03917619096647118	4.421738540676933	0.38463172438764526	-0.46277946923158825	4.596711651014907	0.38182093427206004	-0.07543518467398293	4.628383219491783	0.27006007009716176	-0.3677679591908971	4.349508003065483	0.3257800088568442	-0.21174849043957045	4.308985296135704	0.35703833490352466	-0.26236542682963354	4.737920806000208	0.44194547566294895	-0.15912282114953008	4.753394728047389	0.4368895610889332	-0.15631246542335545	5.0422205261878865	0.4493818005204166	-0.11586440624015884	5.032300883727404
633	5.275	0.7898282235278791	-0.34900474409434556	4.614906320597548	0.8164541680466942	-0.3593470415771755	4.5932146059511885	0.8172759035045737	-0.34166027766213813	4.575977779431412	0.8190055681456428	-0.3545800933700243	4.535553038857747	0.8216295145561828	-0.2939983517719746	4.519743997174684	0.6580177114831811	-0.4535711602060585	4.525218912770219	0.7329097223558454	-0.20271413676082833	4.424357700449918	0.546111158332341	-0.43121810636626823	4.5670253756364625	0.5318396533002586	-0.04190209170814937	4.446473032493856	0.3597466755327746	-0.43107303069985553	4.627065834898009	0.37093582975695044	-0.07323110765554876	4.632215081125788	0.3436443777159012	-0.3305724891282524	4.36973180942804	0.3292774231881679	-0.1740690485546894	4.3183892022944645	0.34392253679089857	-0.2659709449372655	4.7464298780252125	0.3011351794272406	-0.22642662606880587	4.750178909564625	0.3855279933055158	-0.15981988389051138	5.053499027600665	0.39764880020638355	-0.1356258569758601	5.0558918528064325
634	5.283333333333333	0.7748863328938914	-0.3480054728069097	4.673362212603534	0.8021437807694428	-0.3675469126294447	4.659995805746854	0.8099191736792433	-0.32270286257798625	4.650403108884705	0.8102830639560628	-0.3642781520136852	4.597273020903629	0.8267924044836068	-0.2837297504886471	4.593381261862614	0.6446219837452589	-0.4558541830705083	4.569609787038644	0.7399433326524084	-0.19058137035051018	4.487538829931366	0.5487749548837038	-0.3910899170321229	4.595277151922659	0.5241034219311631	-0.040188465529887134	4.475077230560103	0.33834732894852465	-0.42306661091582753	4.623945632215958	0.37476139231301764	-0.05981308799466277	4.640415170740843	0.259501843669338	-0.2312412526196578	4.352833298017707	0.3390434119895669	-0.14740123055560736	4.315332253752163	0.32080111128498784	-0.25639361260575777	4.775372502439079	0.3184134489300049	-0.22184109048720355	4.783975645096783	0.3446792198513976	-0.15678613253475776	5.07803381834502	0.3326296470757648	-0.1567460904745048	5.075346549300483
635	5.291666666666667	0.7510822254726953	-0.3458291845467029	4.729129497374658	0.780100270794823	-0.3763812867826948	4.70830004550946	0.783898037675324	-0.32890339847716116	4.711534945652616	0.783778926273209	-0.399257190927809	4.648671274010274	0.7911719428622823	-0.28575039884497283	4.658033916050631	0.6259301780596573	-0.4617519375605253	4.602033324910386	0.7325201177667223	-0.18634057497106118	4.5369307202103695	0.5340394394587736	-0.3640827759402242	4.615548635774352	0.5160014622798418	-0.03870530670919255	4.506571479197943	0.327084566202515	-0.38884851827423855	4.650684916764597	0.36524316056752465	-0.08228969861801698	4.662102677140612	0.4068727558473105	-0.26522386761614947	4.357707516309818	0.3731119857977417	-0.15423173740545168	4.313599423852696	0.32815233148307743	-0.27857379674252636	4.711957611005734	0.30333345122016536	-0.23272723436002757	4.77232805874477	0.2959183773461928	-0.17676516252159666	5.073283336337787	0.2860646330935327	-0.1758561252626542	5.0678323893650985
636	5.3	0.7098839409006235	-0.32339482255938745	4.793286047560664	0.7404971073346892	-0.36363174437054785	4.765258594217497	0.7526913183649427	-0.3216708886644226	4.766323516123648	0.7577767925074899	-0.3708080587827397	4.725580695000962	0.7868519201843079	-0.3247603564149778	4.7065119382547485	0.6123103064809028	-0.482394517426923	4.6430007429798135	0.7451657773463741	-0.21686376098196375	4.596118368977154	0.4947596894418266	-0.36368842807753055	4.622400320437667	0.5141751888674367	-0.04212260952357369	4.539976122729644	0.3237711253257892	-0.3988845225119948	4.646156252595799	0.3485331152853031	-0.08862136517523049	4.681022451693554	0.3841453235878872	-0.2943359307778596	4.357607315247919	0.3943048802700393	-0.14055186119884683	4.3370931197322005	0.299620207864855	-0.264935695601852	4.717044938682352	0.2875342061605169	-0.24368028281000886	4.789649013308108	0.24406970833541966	-0.19601350468594816	5.078575406027148	0.24065968354310255	-0.19319586413206583	5.076061945498821
637	5.308333333333334	0.6794405179347927	-0.3452312768579887	4.8260456969954895	0.7054894507746486	-0.3712010977871208	4.820456331673818	0.7171908098450259	-0.32532392599338106	4.818714895470056	0.7323993682557353	-0.3999908600104335	4.757223354224411	0.7704676855259571	-0.28380851628938836	4.767211055798415	0.596441637471112	-0.4797409517559099	4.673218261842224	0.7327408609385856	-0.19534894195318908	4.648596041573549	0.4237907822171385	-0.4033986184310001	4.610392699158723	0.5152197274322763	-0.042169318329024166	4.569640145032773	0.2739246958916702	-0.3098756665807599	4.6832864817613915	0.3246895531288747	-0.07883083365557284	4.691625673669364	0.34732689377808335	-0.3186170258868917	4.364797975074024	0.41160520604128015	-0.17327651783840065	4.3424922337413525	0.28117638539361145	-0.2816835474862501	4.7549098771297915	0.2629771916851379	-0.2534033049494014	4.796047738451884	0.1949341909403263	-0.2068512751503116	5.084235618625178	0.19914117129725778	-0.20014818215458308	5.0793958025583645
638	5.316666666666666	0.6363874854089483	-0.3445004122691977	4.860797037597887	0.6651373256828449	-0.37785336232263983	4.859007212845968	0.6758799324225085	-0.30444812624047146	4.864850614201061	0.7075377935639613	-0.4047319740692911	4.800872835917771	0.7420995291371663	-0.2698399292537814	4.8211242616994054	0.5863600632863948	-0.46816491946958155	4.69739721903884	0.7017440027151708	-0.1718241097764073	4.699566910014674	0.34750292203598554	-0.4625747964755104	4.587665973097794	0.4964664451335605	-0.011294839913842421	4.581539398196573	0.24559972335754973	-0.2943826165070495	4.699768012059872	0.32090975684413003	-0.07740117410307887	4.699562185018037	0.3769482235464233	-0.3201546860187386	4.361927939026528	0.41849673421254285	-0.14954009560213963	4.359357135966957	0.26642074410005046	-0.278706723404249	4.775716706379822	0.23820723715571207	-0.2712716829682148	4.788423870269622	0.1460529553362097	-0.2271725515595676	5.074427021556149	0.16008531752562918	-0.22029811072886216	5.0790737360760625
639	5.325	0.5987445519393708	-0.33421829444199797	4.895132597976691	0.6295615736388538	-0.3598601183385408	4.899908724725419	0.6296743052346206	-0.3092425559194568	4.912209092058203	0.6813360464578245	-0.4018839723329329	4.8493654374660995	0.6975424114987079	-0.26698450745378316	4.871727516631544	0.5855133797440141	-0.4669320522545399	4.727677153963149	0.6635679886314774	-0.1608840477347796	4.744163706171455	0.35621433732100355	-0.45082097821170247	4.593581604008996	0.49312821181575306	-0.010532694885354962	4.594271161810504	0.2311471615814294	-0.3398227895799596	4.689690662143077	0.3291674683662776	-0.11236158224505657	4.711635647633645	0.38925511879050145	-0.3205276002189568	4.39068691659284	0.43073979851658145	-0.14414307789159558	4.378834623324154	0.24553454074632	-0.2899606811145219	4.7651301033982465	0.2206400360686985	-0.2882020723007338	4.777110191801664	0.0989782386697302	-0.23114535594146077	5.064374339860395	0.10327373307135064	-0.238913996151439	5.054728225568442
640	5.333333333333333	0.5601711290803311	-0.33915578169182076	4.921083569685038	0.5918495952741543	-0.36870090011393225	4.927133094072582	0.5930876051091871	-0.31734933449828706	4.943198414840349	0.6409054220969489	-0.4098810651422473	4.887066195353839	0.6669354388282793	-0.2689656909833284	4.913948075143155	0.5584554596291964	-0.4861238479765506	4.751733645647849	0.6554311216954989	-0.1661064774914639	4.784685276853023	0.3489977309549196	-0.458023700373522	4.6023323274101635	0.49830811491378935	-0.019747127037618023	4.620919217386401	0.2086952210753098	-0.36727090117450156	4.676010918671853	0.33538968289593357	-0.1446379482924576	4.721162981103216	0.41382521916410775	-0.3204851652953027	4.3887493585394175	0.4638541523108977	-0.1409736482036461	4.409344332931288	0.2357300219962066	-0.27021118000715255	4.750944847313746	0.21347587074116586	-0.2905731018897323	4.770156623667123	0.05478894363598734	-0.23076838882714612	5.037801163708947	0.06607348643751906	-0.2449075019233268	5.039631771145836
